<?xml version="1.0" standalone="no"?><!DOCTYPE svg PUBLIC "-//W3C//DTD SVG 1.1//EN" "http://www.w3.org/Graphics/SVG/1.1/DTD/svg11.dtd"><svg t="1627284151333" class="icon" viewBox="0 0 1024 1024" version="1.1" xmlns="http://www.w3.org/2000/svg" p-id="2637" xmlns:xlink="http://www.w3.org/1999/xlink" width="200" height="200"><defs><style type="text/css">@font-face { font-family: feedback-iconfont; src: url("//at.alicdn.com/t/font_1031158_1uhr8ri0pk5.eot?#iefix") format("embedded-opentype"), url("//at.alicdn.com/t/font_1031158_1uhr8ri0pk5.woff2") format("woff2"), url("//at.alicdn.com/t/font_1031158_1uhr8ri0pk5.woff") format("woff"), url("//at.alicdn.com/t/font_1031158_1uhr8ri0pk5.ttf") format("truetype"), url("//at.alicdn.com/t/font_1031158_1uhr8ri0pk5.svg#iconfont") format("svg"); }
</style></defs><path d="M512 50.033778C257.265778 50.033778 50.033778 257.265778 50.033778 512c0 254.72 207.232 461.966222 461.966222 461.966222 254.72 0 461.966222-207.246222 461.966222-461.966222C973.966222 257.265778 766.72 50.033778 512 50.033778z m0 867.043555C288.64 917.077333 106.922667 735.36 106.922667 512S288.64 106.922667 512 106.922667 917.077333 288.64 917.077333 512 735.36 917.077333 512 917.077333z" fill="#5e864d" p-id="2638"></path><path d="M606.520889 166.954667a14.336 14.336 0 0 0-17.479111 9.969777c-2.062222 7.594667 2.417778 15.402667 9.969778 17.479112C741.632 233.386667 841.216 363.989333 841.216 512a14.222222 14.222222 0 1 0 28.444444 0c0-160.796444-108.188444-302.677333-263.139555-345.045333zM512.014222 182.769778a342.485333 342.485333 0 0 1 19.185778 0.526222 14.222222 14.222222 0 0 0 0.753778-28.416 370.631111 370.631111 0 0 0-19.925334-0.554667 14.222222 14.222222 0 0 0-0.014222 28.444445zM756.224 481.208889l-148.579556-92.700445c-7.111111-4.110222-12.700444-6.286222-20.750222-6.286222-22.172444 0-34.005333 16.042667-34.005333 37.304889v80.298667a39.352889 39.352889 0 0 0-16.910222-18.588445l-146.346667-92.743111c-7.125333-4.110222-12.373333-6.286222-19.797333-6.286222-20.408889 0-30.279111 15.672889-30.279111 37.304889v184.945778c0 21.632 9.728 37.333333 29.923555 37.333333 7.367111 0 12.714667-2.190222 20.252445-6.570667l145.749333-92.202666c8.334222-4.807111 14.165333-11.306667 17.422222-18.531556v79.971556c0 21.276444 11.477333 37.333333 33.166222 37.333333 7.921778 0 13.553778-2.190222 20.977778-6.442667l149.973333-92.330666c12.387556-7.139556 19.783111-17.991111 19.811556-29.809778-0.028444-12.544-7.281778-24.291556-20.608-32z m-234.424889 37.418667l-146.830222 92.231111c-3.569778 2.062222-3.84 2.503111-5.489778 2.503111-1.592889 0-1.479111 0-1.479111-8.888889V419.527111c0-5.888-2.645333-8.860444 1.834667-8.860444 2.446222 0 2.915556 0.853333 5.276444 2.204444l145.251556 92.743111c4.949333 2.844444 7.025778 5.688889 7.025777 6.912 0 1.024-0.910222 3.399111-5.589333 6.101334z m221.639111-0.099556l-151.054222 92.330667c-2.801778 1.635556-3.384889 2.503111-6.328889 2.503111-2.887111 0-4.721778-0.896-4.721778-8.888889V419.527111c0-8.220444 3.114667-8.860444 5.560889-8.860444 3.057778 0 3.854222 0.853333 6.300445 2.247111l147.498666 92.700444c5.361778 3.086222 7.665778 6.286222 7.665778 7.580445 0 0.867556-0.782222 2.958222-4.920889 5.333333z" fill="#5e864d" p-id="2639"></path></svg>